<svg version="1.2" xmlns="http://www.w3.org/2000/svg" viewBox="0 0 606 601" width="606" height="601">
	<title>1476626_194626-OY2LRO-949</title>
	<defs>
		<linearGradient id="g1" x2="1" gradientUnits="userSpaceOnUse" gradientTransform="matrix(525.051,525.051,-526.372,526.372,301.667,-220.667)">
			<stop offset="0" stop-color="#589dfd"/>
			<stop offset="1" stop-color="#046bff"/>
		</linearGradient>
	</defs>
	<style>
		tspan { white-space:pre } 
		.s0 { fill: #000000 } 
		.s1 { fill: url(#g1) } 
	</style>
	<g id="OBJECTS">
		<g id="&lt;Group&gt;">
			<g id="&lt;Group&gt;" style="opacity: .12;mix-blend-mode: multiply">
				<path id="&lt;Compound Path&gt;" fill-rule="evenodd" class="s0" d="m534 318.7l21.3 16.1-11.3 14.8-40.7-30.9h-35.3l37.4 28.4-11.2 14.8-56.9-43.1h-28.5c-10.7 2.1-18.3 6.7-23.2 14.1l31.9 15.7c5.5-3.7 12.9-3.2 17.7 1.6 5.4 5.5 5.4 14.3-0.1 19.7-5.4 5.5-14.3 5.5-19.7 0.1-2.4-2.5-3.7-5.7-4-8.9l-30.9-15.2c-1.9 9.2-0.9 18.1-0.2 22.3l20.9 20.9 76 4.2-1.1 18.5-55.3-3 25.2 25.2 57.7 3.1-1.1 18.5-37-2 35.5 35.5-13.2 13.2-33.7-33.9 4.1 30.7-18.3 2.5-7.5-54.9-24.9-24.9 6.9 50.7-18.4 2.6-10.2-75-19.7-19.8c-5.5-2.9-10.9-3.6-16.5-2-0.5 0.2-1 0.4-1.6 0.6l13.3 35.8c2.1 0.6 4.1 1.7 5.8 3.4 5.4 5.4 5.4 14.3 0 19.7-5.5 5.4-14.3 5.4-19.7 0-5.5-5.4-5.4-14.2 0-19.7q0.1 0 0.2-0.1l-11.6-31.6c-8.4 7.3-15.2 17.3-18.4 23.1v15l52.8 59.1-13.8 12.3-39.1-43.7v35.6l40.6 45.2-13.8 12-26.9-30.9-0.1 55.4h-18.6l0.2-47.7-16.6 23.5-14.8-11.2 31.4-41.4 0.1-35.2-28.8 38-14.8-11.3 43.6-57.4v-10.5l0.1-9.1c0-6.8-2-12.1-6-16.1-2-2-4.5-3.6-7.2-5l-15.5 37.2c5.1 5.4 5 14-0.3 19.4-5.4 5.4-14.3 5.4-19.7 0-5.4-5.5-5.4-14.3 0-19.7 1.9-1.9 4.2-3.1 6.6-3.7l15.5-37.2c-8.5-1.4-17.1-1.3-22.7-0.8l-19.1 19.1-4.4 78-18.6-1 3.3-57.3-25.3 25.2-3.3 59.7-18.6-1 2.2-39-37.5 37.5-13.1-13.1 33.6-33.5-28.5 3.9-2.5-18.4 52.7-7.3 25-24.9-48.5 6.7-2.5-18.4 72.8-10.1 21.4-21.3c3.3-3.6 9.9-11.1 1.6-23.8l-35.2 17.2c-0.2 3.2-1.5 6.3-4 8.8-5.4 5.5-14.2 5.5-19.7 0-5.4-5.4-5.4-14.2 0.1-19.7 4.8-4.8 12.2-5.3 17.6-1.7l31.7-15.5c-6-5.4-12.3-9.6-15.9-12-0.3-0.1-0.5-0.3-0.8-0.5h-17.5l-57.9 51.9-12.4-13.8 42.5-38h-35.7l-44.2 39.6-12.4-13.8 28.8-25.8-60.4 0.1v-18.6h55.6l-23.3-17.7 11.3-14.8 42.8 32.5 35.2-0.1-39.4-29.8 11.2-14.8 58.9 44.6h18.5c10-3.6 15.3-10.9 18-19.1l-34.4-13.6q0 0.1-0.1 0.1c-5.4 5.5-14.2 5.5-19.6 0-5.5-5.4-5.5-14.2 0-19.6 5.4-5.5 14.3-5.5 19.7-0.1 1.7 1.8 2.8 3.8 3.5 6l33.1 13.1c0.3-7.9-0.9-15-1.6-18.5l-9.8-9.9-77.2-4.2 1-18.5 56.5 3-25.1-25.1-58.9-3.2 1-18.6 38.2 2.1-44.2-44.2 13.2-13.2 41.1 41.2-4-29.3 18.4-2.5 7.3 53.6 24.9 24.9-6.7-49.5 18.4-2.5 10 73.7 10.2 10.2c8.7 5.6 16.4 7.2 23.5 4.8 0.4-0.2 0.7-0.3 1.1-0.5l-15-46.6c-2.5-0.5-4.9-1.8-6.8-3.7-5.5-5.5-5.5-14.3 0-19.7 5.4-5.5 14.3-5.5 19.7 0 5.2 5.2 5.3 13.6 0.4 19.1l13.5 42.3c7.1-7.8 12.1-18 14.2-23.7v-27.1l-51.2-57.3 13.9-12.4 37.4 41.9 0.1-35.7-39.1-43.6 13.9-12.4 25.2 28.2 0.1-44.1h18.5v40.3l18.1-23.9 14.8 11.2-33 43.5v35.2l30.4-40.1 14.7 11.2-45.2 59.6v24.8c2.8 5.4 6 10 9.6 13.6 2.2 2.2 4.5 3.9 6.8 5.3l13.3-51.5c0 0-0.1-0.1-0.1-0.1-5.4-5.4-5.4-14.3 0.1-19.7 5.4-5.4 14.2-5.4 19.7 0 5.4 5.4 5.4 14.2-0.1 19.7-1.7 1.7-3.9 2.8-6.1 3.5l-13.6 52.7c16.3 2.1 31.5-7.2 32.4-7.8l3.6-2.2 9.4-9.4 4.3-76.5 18.6 1-3.2 55.8 25.2-25.2 3.3-58.3 18.6 1.1-2.1 37.5 30.8-30.8 13.1 13.1-28.5 28.5 30-4.2 2.5 18.4-54.3 7.6-25 24.9 50.1-7 2.5 18.4-74.3 10.3-14.5 14.5c-4.7 9.2-5 17.9-3 25.9l41.9-18c0.3-3 1.6-5.8 3.9-8.1 5.5-5.5 14.3-5.5 19.7 0 5.5 5.4 5.4 14.2 0 19.6-5 5-12.7 5.4-18.1 1.3l-41.9 17.9c3.2 5.3 7.1 10 11.2 14 2.9 2.9 5.4 5 7.1 6.4h23.2l59.6-53.3 12.4 13.8-44.2 39.5h35.6l46-41.2 12.4 13.9-30.5 27.2h46.5v18.6zm-261.3-58.2l26.6 26.7 0.1-42.9c-5.6 6.2-12.6 11.8-21 14.7q-2.9 1-5.7 1.5zm13.5 39.8l-31.6-31.6c-0.5 10.9-3.2 22.2-9.5 31.7zm-24.7 43.1l24.7-24.6-41.4 0.1c0.8 0.7 1.5 1.3 2.3 2 7.4 7.4 12.1 15 14.4 22.5zm37.7 28.9l0.1-40.4-31 31c10 0.9 21.5 3.5 30.9 9.4zm55.6-122.1c-12.2 0.5-25.3-2.6-36.8-12.3l-0.1 49.2zm-8.9 109.9l-28.1-28.2-0.1 46.4c7.1-7.6 16.2-14.7 26.7-17.8 0.5-0.2 1-0.3 1.5-0.4zm27.1-41.3h-42l30.2 30.3c0.9-8.5 3.3-17.8 8.8-26.2 0.9-1.5 2-2.8 3-4.1zm11.6-18.6c-9.9-11.8-15.6-24.3-16.9-36.7l-36.7 36.7z"/>
			</g>
			<g id="&lt;Group&gt;">
				<g id="&lt;Group&gt;">
					<path id="&lt;Compound Path&gt;" fill-rule="evenodd" class="s1" d="m528.8 313.5l21.3 16.1-11.3 14.8-40.8-30.9h-35.2l37.4 28.4-11.2 14.8-56.9-43.1h-28.5c-10.7 2.1-18.3 6.7-23.2 14.1l31.9 15.7c5.5-3.7 12.9-3.2 17.7 1.6 5.4 5.5 5.4 14.3-0.1 19.7-5.4 5.5-14.3 5.5-19.7 0-2.5-2.4-3.7-5.6-4-8.8l-30.9-15.2c-1.9 9.2-0.9 18.1-0.2 22.3l20.9 20.9 76 4.2-1.1 18.5-55.3-3 25.2 25.2 57.7 3.1-1.1 18.5-37-2 35.5 35.5-13.2 13.1-33.7-33.8 4.1 30.7-18.3 2.5-7.5-54.9-24.9-24.9 6.9 50.7-18.4 2.6-10.2-75-19.7-19.8c-5.5-2.9-11-3.6-16.5-2-0.5 0.2-1 0.4-1.6 0.6l13.3 35.8c2.1 0.6 4.1 1.7 5.8 3.4 5.4 5.4 5.4 14.3 0 19.7-5.5 5.4-14.3 5.4-19.7 0-5.5-5.4-5.4-14.2 0-19.7q0.1-0.1 0.2-0.1l-11.6-31.6c-8.4 7.3-15.2 17.3-18.4 23.1v15l52.8 59.1-13.8 12.3-39.1-43.7v35.5l40.6 45.3-13.8 12-26.9-30.9-0.1 55.4h-18.6l0.1-47.8-16.5 23.6-14.8-11.2 31.4-41.4v-35.2l-28.7 38-14.8-11.3 43.6-57.5v-10.4l0.1-9.1c-0.1-6.8-2-12.1-6-16.1-2-2-4.5-3.6-7.2-5l-15.5 37.2c5.1 5.4 5 14-0.3 19.3-5.5 5.5-14.3 5.5-19.7 0.1-5.4-5.5-5.4-14.3 0-19.7 1.9-1.9 4.2-3.1 6.6-3.7l15.5-37.2c-8.5-1.4-17.1-1.3-22.7-0.8l-19.1 19.1-4.4 78-18.6-1 3.3-57.3-25.3 25.2-3.4 59.7-18.5-1 2.2-39-37.5 37.5-13.1-13.1 33.6-33.5-28.5 3.9-2.5-18.4 52.7-7.3 25-24.9-48.5 6.7-2.5-18.4 72.8-10.1 21.4-21.3c3.3-3.6 9.9-11.1 1.6-23.9l-35.2 17.2c-0.2 3.3-1.5 6.4-4 8.9-5.4 5.4-14.2 5.5-19.7 0-5.4-5.4-5.4-14.2 0.1-19.7 4.8-4.8 12.2-5.3 17.6-1.7l31.7-15.5c-6-5.4-12.3-9.6-15.9-12-0.3-0.1-0.5-0.3-0.8-0.5h-17.5l-57.9 51.9-12.4-13.8 42.5-38h-35.7l-44.2 39.6-12.4-13.8 28.8-25.8-60.4 0.1v-18.6h55.6l-23.3-17.7 11.3-14.8 42.7 32.4h35.3l-39.4-29.8 11.2-14.8 58.9 44.6h18.4c10.1-3.6 15.4-10.9 18.1-19.1l-34.4-13.6q0 0.1-0.1 0.1c-5.4 5.5-14.2 5.5-19.6 0-5.5-5.4-5.5-14.2 0-19.6 5.4-5.5 14.3-5.5 19.7-0.1 1.7 1.8 2.8 3.8 3.4 6l33.2 13.1c0.3-7.9-0.9-15-1.6-18.5l-9.8-9.9-77.2-4.2 1-18.5 56.5 3-25.2-25.2-58.8-3.1 1-18.6 38.2 2.1-44.2-44.2 13.2-13.2 41.1 41.2-4-29.3 18.4-2.6 7.3 53.7 24.9 24.9-6.7-49.5 18.4-2.5 10 73.7 10.2 10.2c8.7 5.6 16.4 7.2 23.5 4.8 0.4-0.2 0.7-0.3 1.1-0.5l-15-46.6c-2.5-0.5-4.9-1.8-6.9-3.7-5.4-5.5-5.4-14.3 0.1-19.7 5.4-5.5 14.2-5.5 19.7 0 5.2 5.2 5.3 13.6 0.4 19.1l13.5 42.3c7.1-7.8 12.1-18 14.2-23.7v-27.1l-51.2-57.3 13.8-12.4 37.5 41.9v-35.7l-39-43.6 13.9-12.4 25.2 28.2 0.1-44.1h18.5v40.3l18.1-23.9 14.8 11.2-33 43.5v35.2l30.4-40.1 14.7 11.2-45.2 59.6v24.8c2.8 5.4 6 10 9.6 13.6 2.2 2.2 4.5 3.9 6.8 5.3l13.3-51.5c0-0.1-0.1-0.1-0.1-0.1-5.4-5.4-5.4-14.3 0.1-19.7 5.4-5.4 14.2-5.5 19.7 0 5.4 5.4 5.4 14.2-0.1 19.7-1.7 1.7-3.9 2.8-6.1 3.5l-13.6 52.7c16.3 2.1 31.5-7.2 32.4-7.8l3.6-2.2 9.4-9.4 4.3-76.6 18.5 1.1-3.1 55.8 25.2-25.2 3.3-58.3 18.6 1-2.2 37.6 30.9-30.8 13.1 13.1-28.5 28.5 30-4.2 2.5 18.4-54.3 7.5-25 25 50.1-7 2.5 18.4-74.3 10.3-14.5 14.5c-4.7 9.2-5.1 17.9-3 25.9l41.9-18c0.3-3 1.6-5.8 3.9-8.1 5.5-5.5 14.3-5.5 19.7 0 5.5 5.4 5.4 14.2 0 19.6-5 5-12.7 5.4-18.1 1.3l-41.9 17.9c3.2 5.3 7.1 10 11.2 14 2.8 2.9 5.4 5 7.1 6.4h23.2l59.6-53.3 12.4 13.8-44.2 39.5h35.6l46-41.2 12.4 13.9-30.5 27.2h46.5v18.6zm-261.3-58.2l26.6 26.7 0.1-42.9c-5.6 6.2-12.6 11.8-21 14.7q-2.9 1-5.7 1.5zm13.5 39.8l-31.6-31.6c-0.6 10.9-3.2 22.2-9.5 31.7zm-24.7 43.1l24.7-24.6-41.4 0.1c0.8 0.7 1.5 1.3 2.3 2 7.3 7.4 12.1 15 14.4 22.5zm37.7 28.9l0.1-40.4-31 31c10 0.9 21.5 3.5 30.9 9.4zm55.6-122.1c-12.2 0.5-25.3-2.6-36.8-12.4l-0.1 49.3zm-8.9 109.9l-28.1-28.2-0.1 46.4c7.1-7.6 16.2-14.7 26.7-17.8 0.5-0.2 1-0.3 1.5-0.4zm27.1-41.4l-42.1 0.1 30.3 30.3c0.9-8.5 3.3-17.8 8.8-26.2 0.9-1.5 2-2.8 3-4.2zm11.6-18.5c-9.9-11.8-15.6-24.3-16.9-36.7l-36.7 36.7z"/>
				</g>
			</g>
		</g>
	</g>
</svg>