<svg version="1.2" xmlns="http://www.w3.org/2000/svg" viewBox="0 0 294 292" width="294" height="292">
	<title>829768_1436</title>
	<defs>
		<linearGradient id="g1" x2="1" gradientUnits="userSpaceOnUse" gradientTransform="matrix(442.357,508.874,-507.842,441.46,-74.179,-108.437)">
			<stop offset="0" stop-color="#589dfd"/>
			<stop offset="1" stop-color="#046bff"/>
		</linearGradient>
	</defs>
	<style>
		.s0 { mix-blend-mode: color-dodge;fill: url(#g1) } 
	</style>
	<g id="Design">
		<g id="&lt;Group&gt;">
			<path id="&lt;Path&gt;" class="s0" d="m274.6 187.8l-29.7-10.5 31.2-20.3c3.1-2 3.9-6.1 2-9.1q-0.4-0.7-1.1-1.3c-2.1-2-5.6-2.3-8-0.7l-39.8 25.8-13-4.6 10.7-8.3c1.3-1.1 2.2-2.7 2.5-4.4 0.2-1.8-0.3-3.5-1.3-4.8-0.2-0.3-0.5-0.6-0.9-0.9-1.2-1.1-2.7-1.7-4.4-1.7-1.4 0-2.9 0.5-4 1.4l-17.3 13.5-37.8-13.4 36.2-17.3 18.6 11.6c1.1 0.7 2.3 1 3.5 1 2.3 0 4.4-1.1 5.6-3.1 1.8-3 0.9-7.1-2.1-9l-11.5-7.2 12.4-6 42.3 21.5c0.9 0.5 1.9 0.7 3 0.7 2.4 0 4.7-1.3 5.8-3.6 1.7-3.2 0.4-7.1-2.9-8.8l-33.2-16.9 28.6-13.6c3.2-1.6 4.6-5.5 3.1-8.8q-0.6-1.2-1.6-2.1c-1.9-1.7-4.9-2.2-7.2-1l-26.4 12.6 8.7-26.1c0.8-2.5 0.1-5.3-1.8-7q-1-0.9-2.3-1.4-1-0.3-2.1-0.3c-2.8 0-5.4 1.8-6.3 4.5l-12.7 38.1-11.4 5.5 3.7-12.7c0.6-2.4-0.1-5-2-6.7q-1-1-2.5-1.5-0.9-0.2-1.9-0.2c-2.9 0-5.5 1.9-6.3 4.8l-6.8 23.8-36.3 17.3 13.4-38.1 22.9-9.3c1.6-0.6 2.9-1.9 3.5-3.5 0.7-1.6 0.7-3.4 0.1-5q-0.5-1.4-1.7-2.5c-1.9-1.6-4.5-2.1-6.9-1.2l-12.1 5 4.2-12 36.4-16.7c3.3-1.5 4.8-5.5 3.3-8.7-0.4-0.9-0.9-1.6-1.6-2.2-1.9-1.8-4.8-2.2-7.2-1.1l-24.8 11.4 9.7-27.7c0.6-1.7 0.5-3.5-0.3-5.1-0.8-1.6-2.1-2.8-3.7-3.3q-1.1-0.4-2.2-0.4c-2.8 0-5.3 1.8-6.2 4.4l-10.5 29.9-20.2-31.4c-1.2-1.9-3.2-3-5.5-3-1.3 0-2.5 0.4-3.6 1.1-3 1.9-3.9 6-1.9 9l25.7 40-4.6 13.1-8.3-10.7c-1.2-1.6-3.1-2.5-5.2-2.5-1.4 0-2.9 0.5-4 1.3-1.3 1.1-2.2 2.6-2.5 4.4-0.2 1.7 0.3 3.5 1.3 4.9l13.5 17.4-13.3 38-17.2-36.4 11.6-18.8c1.6-2.7 1.1-6.2-1.2-8.3-0.2-0.2-0.5-0.4-1-0.7-1-0.6-2.2-1-3.4-1-2.3 0-4.4 1.2-5.6 3.1l-7.1 11.5-5.9-12.5 21.4-42.5c1.3-2.7 0.7-5.9-1.4-7.8q-0.7-0.6-1.5-1c-0.9-0.5-2-0.7-3-0.7-2.5 0-4.7 1.4-5.8 3.6l-16.9 33.3-13.5-28.5c-0.3-0.8-0.9-1.6-1.5-2.2-1.9-1.7-4.8-2.2-7.2-1-3.3 1.5-4.7 5.5-3.2 8.8l12.6 26.5-25.9-8.7q-1.1-0.4-2.1-0.4c-2.9 0-5.4 1.8-6.3 4.5-1.1 3.4 0.7 7.2 4.2 8.3l37.9 12.9 5.4 11.4-12.5-3.6q-0.9-0.3-1.9-0.3c-2.9 0-5.5 2-6.3 4.8-1 3.5 1.1 7.2 4.5 8.2l23.7 6.8 17.3 36.5-37.9-13.4-9.3-23.1q-0.5-1.3-1.7-2.4c-1.8-1.6-4.5-2.1-6.8-1.2-1.7 0.7-2.9 2-3.6 3.6-0.7 1.6-0.7 3.4 0 5l4.9 12.2-11.9-4.2-16.7-36.7q-0.5-1.1-1.5-2c-1.9-1.8-4.8-2.2-7.2-1.1-3.3 1.5-4.7 5.4-3.2 8.7l11.4 25-27.6-9.8q-1.1-0.3-2.2-0.3c-2.8 0-5.2 1.7-6.2 4.4-0.5 1.6-0.4 3.4 0.3 5 0.8 1.6 2.1 2.8 3.8 3.4l29.7 10.5-31.3 20.3c-3 2-3.9 6.1-1.9 9.1 1.2 1.9 3.3 3 5.5 3 1.3 0 2.5-0.3 3.6-1l39.7-25.8 13.1 4.6-10.7 8.3c-2.9 2.3-3.4 6.4-1.2 9.3 1.3 1.6 3.2 2.5 5.2 2.5 1.5 0 2.9-0.5 4.1-1.4l17.3-13.5 37.8 13.4-36.2 17.3-18.7-11.6c-1-0.7-2.2-1-3.4-1-2.3 0-4.4 1.1-5.6 3.1-0.9 1.5-1.2 3.2-0.8 5 0.4 1.7 1.4 3.1 2.9 4.1l11.5 7.1-12.5 6-42.2-21.5c-0.9-0.5-1.9-0.8-3-0.8-2.5 0-4.7 1.4-5.9 3.7-0.8 1.5-0.9 3.3-0.3 5 0.5 1.7 1.7 3 3.2 3.8l33.2 16.9-28.4 13.6c-3.3 1.6-4.7 5.5-3.2 8.8 1.1 2.3 3.4 3.8 6 3.8q1.4 0 2.8-0.7l26.4-12.6-8.7 26.1c-0.6 1.7-0.5 3.5 0.3 5.1 0.8 1.6 2.1 2.7 3.8 3.3q1 0.3 2.1 0.3c2.8 0 5.3-1.8 6.2-4.5l12.8-38.1 11.3-5.5-3.6 12.7c-1 3.5 1 7.1 4.5 8.1q0.9 0.3 1.8 0.3c2.9 0 5.5-2 6.3-4.8l6.9-23.8 36.2-17.3-13.3 38-22.9 9.4c-1.6 0.6-2.9 1.9-3.6 3.5-0.7 1.6-0.7 3.4 0 5 1 2.5 3.4 4.2 6.1 4.2q1.3 0 2.4-0.5l12.2-5-4.2 12-36.5 16.7c-3.2 1.6-4.7 5.5-3.2 8.7 1.1 2.4 3.4 3.9 6 3.9q1.4 0 2.7-0.6l24.9-11.4-9.7 27.7c-0.6 1.6-0.5 3.4 0.2 5 0.8 1.6 2.2 2.8 3.8 3.4q1 0.4 2.2 0.4c2.8 0 5.2-1.8 6.2-4.4l10.5-29.9 20.1 31.4c1.3 1.9 3.3 3 5.6 3 1.2 0 2.5-0.3 3.5-1 3-2 3.9-6.1 2-9.1l-25.7-40 4.6-13.1 8.2 10.7c1.3 1.6 3.2 2.5 5.3 2.5 1.4 0 2.8-0.4 4-1.3 2.8-2.3 3.3-6.4 1.1-9.3l-13.4-17.4 13.3-38 17.2 36.4-11.6 18.7c-0.9 1.5-1.2 3.3-0.8 5 0.4 1.8 1.4 3.2 2.9 4.1 1.1 0.6 2.3 1 3.5 1 2.3 0 4.3-1.2 5.6-3.1l7.1-11.5 5.9 12.5-21.4 42.4c-0.8 1.6-0.9 3.4-0.4 5.1 0.6 1.7 1.7 3 3.3 3.8 0.9 0.5 1.9 0.7 2.9 0.7 2.5 0 4.8-1.4 5.9-3.6l16.8-33.3 13.5 28.6c1.1 2.3 3.5 3.8 6 3.8q1.5-0.1 2.8-0.7c1.6-0.7 2.8-2.1 3.4-3.7 0.6-1.7 0.5-3.5-0.3-5.1l-12.5-26.5 25.9 8.8q1 0.3 2.1 0.3c2.8 0 5.3-1.8 6.2-4.5 0.8-2.5 0.1-5.2-1.8-7q-0.9-0.8-2.3-1.4l-38-12.8-5.4-11.4 12.6 3.6q0.9 0.3 1.8 0.3c3 0 5.6-2 6.3-4.8 0.7-2.5 0-5-1.9-6.8q-1.1-0.9-2.5-1.4l-23.8-6.8-17.2-36.5 37.9 13.4 9.2 23c1.1 2.5 3.4 4.1 6.1 4.1q1.3 0 2.5-0.4c3.3-1.4 5-5.2 3.6-8.6l-4.9-12.2 11.8 4.2 16.7 36.6c1.1 2.3 3.4 3.8 6 3.8q1.4 0 2.7-0.6c3.3-1.5 4.8-5.4 3.3-8.7l-11.4-25 27.5 9.8q1.1 0.3 2.2 0.3c2.8 0 5.3-1.7 6.3-4.4 0.8-2.5 0.1-5.3-1.8-7-0.7-0.6-1.4-1.1-2.3-1.4z"/>
		</g>
	</g>
</svg>